# xmcd
#
# Track frame offsets:
#	150
#	17570
#	33102
#	49275
#	78585
#	93292
#	110777
#	118123
#	136310
#	147455
#
# Disc length: 2207 seconds
#
# Revision: 0
# Processed by: cddbd v1.5.2PL0 Copyright (c) Steve Scherf et al.
# Submitted via: EZCDAudioConverter 6.0.0.1
#
DISCID=87089d0a
DTITLE=Duchess Says - Sciences Nouvelles
DYEAR=2016
DGENRE=
TTITLE0=Inertia P1
TTITLE1=Inertia P2
TTITLE2=I Repeat Myself
TTITLE3=Negative Thoughts
TTITLE4=Poubelle
TTITLE5=Travaillez
TTITLE6=Talk in Shapes
TTITLE7=I'm an Idea
TTITLE8=Pink Coffin
TTITLE9=The Family Physicians
EXTD=
EXTT0=
EXTT1=
EXTT2=
EXTT3=
EXTT4=
EXTT5=
EXTT6=
EXTT7=
EXTT8=
EXTT9=
PLAYORDER=
